PathFileType	4	(X/Y/Z)	 subject01_standing_10_70.trc
DataRate	CameraRate	NumFrames	NumMarkers	Units	OrigDataRate	OrigDataStartFrame	OrigNumFrames
2000	100	6	49	mm	2000	876	1000
Frame#	Time	s2			lmt5			lcal			ltoe			llmal			lsh1			lsh2			lsh3			lsh4			llfc			lth1			lth2			lth3			lth4			lgt			lic			lasi			lpsi			rpsi			ric			rasi			rgt			rth1			rth2			rth3			rth4			rlfc			rsh1			rsh2			rsh4			rlmal			rcal			rmt5			rtoe			jug			c7			lacr			lua			llel			lfa			ldr			racr			rua			rlel			rfa			rdr			B3			B2			B1			
		X1	Y1	Z1	X2	Y2	Z2	X3	Y3	Z3	X4	Y4	Z4	X5	Y5	Z5	X6	Y6	Z6	X7	Y7	Z7	X8	Y8	Z8	X9	Y9	Z9	X10	Y10	Z10	X11	Y11	Z11	X12	Y12	Z12	X13	Y13	Z13	X14	Y14	Z14	X15	Y15	Z15	X16	Y16	Z16	X17	Y17	Z17	X18	Y18	Z18	X19	Y19	Z19	X20	Y20	Z20	X21	Y21	Z21	X22	Y22	Z22	X23	Y23	Z23	X24	Y24	Z24	X25	Y25	Z25	X26	Y26	Z26	X27	Y27	Z27	X28	Y28	Z28	X29	Y29	Z29	X30	Y30	Z30	X31	Y31	Z31	X32	Y32	Z32	X33	Y33	Z33	X34	Y34	Z34	X35	Y35	Z35	X36	Y36	Z36	X37	Y37	Z37	X38	Y38	Z38	X39	Y39	Z39	X40	Y40	Z40	X41	Y41	Z41	X42	Y42	Z42	X43	Y43	Z43	X44	Y44	Z44	X45	Y45	Z45	X46	Y46	Z46	X47	Y47	Z47	X48	Y48	Z48	X49	Y49	Z49	
876	8.7600	327.624634	1191.005981	-168.290863	297.492645	458.026520	-403.726074	253.583679	648.514832	-332.477203	356.573608	365.719299	-336.380280	303.727966	592.213318	-380.260742	601.839111	709.179932	-395.244476	528.756104	662.077209	-386.583466	436.980530	656.580078	-383.799011	539.678040	632.540527	-362.930573	695.353516	753.861633	-374.479065	505.674316	966.709351	-376.546051	576.226074	916.218628	-384.139404	618.307495	834.885437	-382.121063	605.790710	939.915771	-376.179810	419.267609	1079.048096	-358.822510	435.848480	1164.516846	-338.506134	515.316589	1131.995483	-282.811615	347.222961	1219.210571	-217.189133	359.013367	1223.716431	-114.898560	454.244019	1165.860474	-10.011033	516.667786	1126.232666	-67.350113	405.684753	1064.144531	9.693935	446.932465	913.150757	8.647675	473.677521	828.417053	-4.468086	458.996979	742.652710	-19.338383	509.305786	831.668030	-19.591900	455.971710	626.501465	-36.421021	406.904877	519.822327	-23.643301	386.356873	433.569916	-39.829472	412.727783	424.107422	-69.245697	276.891968	244.687225	-56.463520	201.160080	249.903534	-102.305267	349.990997	132.837845	-28.292181	457.821716	91.977631	-91.335930	829.851807	1319.760864	-218.588776	855.447144	1470.141724	-212.478470	860.501038	1474.018188	-333.925751	790.288635	1336.712646	-429.498535	730.160095	1187.606201	-465.997009	794.257751	1070.044922	-427.661682	822.111877	949.722046	-394.122803	883.479004	1443.941650	-77.675850	789.299805	1315.928467	17.688545	699.964417	1173.338501	43.426624	780.492798	1059.719971	10.355884	820.233765	950.058838	-31.332787	25.856733	22.891239	45.983154	19.571756	30.926090	-474.284637	-194.693832	887.561707	-210.139725	
877	8.7700	327.925262	1189.731812	-168.788895	309.381683	461.116791	-403.788147	260.257782	650.166748	-331.795654	370.221741	370.706085	-336.375763	312.485931	595.347168	-380.281250	610.136902	713.200195	-395.585907	537.432007	665.747742	-386.509399	445.692383	659.873230	-384.075775	548.465942	636.685303	-362.420380	703.180847	759.024963	-374.487823	509.688690	968.320862	-376.738525	581.018677	918.677124	-383.781769	624.270996	837.880432	-381.723969	610.204346	942.877502	-375.914307	422.361969	1079.557617	-358.930969	437.772278	1164.312134	-338.142090	516.312195	1131.233398	-281.958099	347.587494	1217.988525	-217.139862	359.110321	1222.080322	-114.923935	453.622742	1164.390625	-9.447621	516.644165	1124.889404	-66.308495	404.438416	1062.669434	9.547962	442.396942	911.681702	9.417228	467.405365	826.386353	-3.201099	450.463715	740.790588	-18.274824	503.026978	828.576721	-18.288202	445.659363	624.440369	-35.116020	396.085907	517.905396	-22.870470	375.393738	431.762939	-39.046211	401.968536	422.211029	-68.303925	265.874084	242.959518	-56.435303	190.513504	249.065964	-102.512917	337.854004	130.347656	-28.365515	445.347321	88.318367	-91.159424	829.338440	1319.013306	-219.657669	855.183105	1469.323975	-213.826660	859.522156	1473.434692	-335.299103	788.671082	1335.953735	-430.441071	728.314209	1186.946289	-466.412323	793.184143	1069.686035	-428.004913	821.738708	949.688232	-394.033112	882.953796	1443.467285	-78.839882	788.762573	1315.599243	17.005196	699.365540	1173.148438	43.092014	780.088013	1059.636230	10.089155	820.077515	949.976990	-31.509556	25.826454	22.874557	45.954601	19.562901	30.877892	-474.257782	-194.719177	887.532715	-210.186646	
878	8.7800	328.321259	1189.130737	-169.643616	321.268097	463.580505	-403.932892	267.627869	651.676514	-332.711060	386.214111	375.762787	-338.161743	320.924927	597.511658	-380.108856	618.033264	717.191040	-395.546539	545.714844	669.315247	-386.249969	453.976807	662.649902	-384.146729	556.776062	640.523499	-361.621643	710.223328	764.314636	-374.295654	513.126099	970.061951	-375.448792	585.137695	921.477539	-383.428772	629.597595	841.328552	-381.343170	613.971436	945.984558	-375.869141	425.384705	1080.639282	-359.105164	439.753021	1164.914551	-337.817749	517.224915	1131.003784	-281.150269	348.115417	1217.534912	-217.227829	359.260437	1221.414551	-115.081825	453.046448	1163.661377	-9.051404	516.665039	1124.200317	-65.472855	403.119965	1061.784668	9.007287	438.079926	910.714478	9.960929	460.997314	824.666809	-2.450138	442.275970	739.829468	-17.397062	496.904755	826.174683	-17.061981	435.707001	623.330688	-34.069817	385.363159	517.016113	-22.023121	364.477844	430.912445	-38.357487	391.288513	421.272705	-67.440865	254.797333	242.371384	-56.499779	179.789368	249.000397	-102.717178	325.666046	128.774689	-28.185284	432.698242	85.464409	-90.985298	828.919556	1318.513672	-220.652527	855.136902	1468.858154	-215.106491	858.601685	1473.171143	-336.581665	787.442871	1335.600098	-431.396698	727.031189	1186.301636	-466.667603	792.378784	1069.408447	-428.129272	821.369385	949.524109	-393.944458	882.497437	1443.337646	-79.763145	788.263550	1315.541382	16.403805	699.103088	1173.039062	42.619713	779.869385	1059.591553	9.811625	819.985229	949.900757	-31.711756	25.841570	22.885651	45.966446	19.549589	30.889887	-474.281555	-194.740250	887.515076	-210.211792	
879	8.7900	328.734253	1189.346924	-170.159012	333.119995	465.134308	-403.993103	274.121368	651.518494	-332.734924	398.990143	377.897614	-336.919586	329.006897	598.717529	-380.004913	625.325928	721.082336	-395.203400	553.326294	672.620972	-385.712128	461.733978	664.991699	-383.990479	564.611084	644.459778	-360.751953	716.606750	769.686340	-373.818787	516.170715	971.910339	-375.254761	588.890747	924.545349	-383.136658	634.575317	845.124878	-380.875580	617.896973	949.201721	-374.952728	428.070435	1082.535400	-359.344330	441.753052	1165.774902	-337.718506	518.106995	1131.250000	-280.288513	348.696930	1217.746582	-217.577560	359.557770	1221.323364	-115.356178	452.539734	1163.431763	-8.831265	516.681458	1124.106689	-64.730339	401.587769	1061.441162	8.333680	433.937500	910.466797	10.311975	455.005981	823.860535	-1.797775	434.491272	739.438416	-16.682730	491.050995	824.525635	-16.116562	425.898895	623.046814	-33.227947	374.734924	517.110840	-21.415829	353.738892	430.948456	-37.830624	380.844482	421.128998	-66.564064	243.845261	242.564194	-56.581970	169.206238	250.164047	-103.068962	313.410370	128.149826	-28.191925	419.918976	83.515442	-90.733017	828.634583	1318.608887	-221.558426	855.167236	1468.799927	-216.367828	857.837952	1473.343994	-337.874695	786.567139	1335.406494	-432.171936	726.382446	1186.014038	-466.677795	791.981323	1069.215210	-428.075043	821.155945	949.513916	-393.723419	882.054688	1443.594727	-80.650993	787.915833	1315.801514	15.852053	699.258240	1173.123901	42.117073	779.958313	1059.581055	9.510759	820.014526	949.782166	-31.951122	25.830763	22.890846	45.969536	19.580748	30.877359	-474.277313	-194.756744	887.511597	-210.250565	
880	8.8000	329.335754	1190.180664	-171.013748	345.067810	465.738159	-404.247467	280.327423	650.409180	-332.926819	413.476532	380.809814	-336.864899	336.922699	598.980530	-379.955139	631.926392	724.846802	-394.611725	560.424133	675.411133	-385.200165	468.896362	666.835876	-383.743958	571.992249	647.850647	-359.803009	722.351807	775.223267	-373.141418	519.030396	974.318481	-375.195221	592.376160	928.015686	-382.714630	639.220093	849.224304	-380.446167	620.975525	953.139404	-374.660339	430.320892	1084.833862	-359.635406	443.497101	1167.434814	-337.673218	518.662720	1132.142090	-279.397766	349.320160	1218.799072	-218.181473	359.932434	1221.760132	-115.902008	452.246857	1163.858154	-8.836878	516.661255	1124.559570	-64.115601	400.207397	1061.738647	7.352382	429.947021	910.882874	10.152040	449.409546	823.789612	-1.282872	426.887268	739.813049	-16.224535	485.465179	823.694214	-15.435715	416.763153	623.442200	-32.740990	364.788055	517.789734	-21.041981	343.424896	431.800476	-37.472519	370.681427	421.755615	-65.971260	233.028763	243.877121	-56.746666	159.206268	252.242859	-103.878876	301.248474	128.450073	-28.249025	407.183594	82.394722	-90.575752	828.487976	1319.083740	-222.262268	855.214600	1469.237183	-217.582382	857.307495	1473.881592	-339.134369	786.098999	1335.493408	-432.745239	726.263550	1185.952393	-466.619141	791.979736	1069.158081	-427.854675	821.363342	949.429688	-393.852783	881.754456	1444.384888	-81.510963	787.815247	1316.525146	15.433062	700.008301	1173.395752	41.444035	780.406982	1059.621216	9.061645	820.145386	949.693665	-32.164028	25.838634	22.899540	45.960453	19.555653	30.865746	-474.295410	-194.765091	887.519836	-210.267151	
881	8.8100	329.869873	1191.718384	-171.747116	356.734375	465.469513	-404.384430	286.286346	647.960022	-333.221344	427.608887	382.856354	-336.727173	344.605469	598.182922	-380.035004	637.841003	728.668091	-393.837799	567.005493	678.276367	-384.616272	475.737427	668.349731	-383.585205	578.898926	650.910339	-359.017700	727.334656	780.704224	-372.329376	521.577576	977.171753	-375.218414	595.560425	931.630493	-382.210571	643.359802	853.508911	-379.771454	624.121277	956.930298	-373.871765	432.183868	1087.422607	-360.107605	445.069641	1169.127808	-337.850189	519.280151	1133.391602	-278.932068	349.612640	1220.408203	-218.571823	360.432159	1223.002197	-116.445885	452.066406	1164.752319	-8.982055	516.831299	1125.466675	-64.082764	398.917969	1062.846436	6.351911	426.409302	911.892761	10.070771	444.259247	824.536987	-0.876113	420.225433	740.788147	-16.095499	480.342804	823.472839	-15.115524	408.125275	624.674011	-32.375610	355.355103	519.249878	-20.809324	333.642029	433.371338	-37.313019	360.906403	423.264954	-65.607079	222.534592	245.977875	-56.942982	148.953186	255.337891	-104.186592	289.051300	129.636902	-28.272572	394.512512	82.135201	-90.384102	828.433289	1320.051514	-222.938309	855.349548	1470.013062	-218.472137	856.997375	1474.712402	-340.291168	785.995544	1335.811646	-433.219055	726.577454	1186.082397	-466.459625	792.233704	1069.272827	-427.616882	821.473328	949.533203	-393.832672	881.581970	1445.572021	-82.261513	788.042358	1317.481445	14.954554	701.041626	1174.052246	40.919983	781.114746	1059.803101	8.549526	820.351685	949.688477	-32.181667	25.839251	22.921444	45.944447	19.554581	30.883297	-474.305328	-194.776703	887.521545	-210.304276	
